<svg xmlns="http://www.w3.org/2000/svg">
  <symbol id="users" viewBox="0 0 24 24"><path d="M16 20v-2a4 4 0 0 0-4-4H6a4 4 0 0 0-4 4v2M9 10a4 4 0 1 0 0-8 4 4 0 0 0 0 8M22 20v-2a4 4 0 0 0-3-3.87M16 2.13a4 4 0 0 1 0 7.75"/></symbol>
  <symbol id="crowd" viewBox="0 0 24 24"><circle cx="12" cy="5" r="3"/><circle cx="5" cy="9" r="2.5"/><circle cx="19" cy="9" r="2.5"/><path d="M7 21v-3a5 5 0 0 1 10 0v3M1 20v-2a4 4 0 0 1 5-4M23 20v-2a4 4 0 0 0-5-4"/></symbol>
  <symbol id="globe" viewBox="0 0 24 24"><circle cx="12" cy="12" r="9.5"/><path d="M2.5 12h19M12 2.5c3 3 4.5 6.17 4.5 9.5S15 18.5 12 21.5C9 18.5 7.5 15.33 7.5 12S9 5.5 12 2.5"/></symbol>
  <symbol id="anniversary" viewBox="0 0 24 24"><path d="M4 19V5h7v14M11 19V9h9v10M2 19h20M7 8h1M7 12h1M7 16h1M15 12h1M18 12h1M15 16h1M18 16h1"/></symbol>
  <symbol id="brick" viewBox="0 0 24 24"><path d="M3 4h18v16H3zM3 9h18M3 15h18M8 4v5M16 4v5M6 9v6M14 9v6M9 15v5M17 15v5"/></symbol>
  <symbol id="window" viewBox="0 0 24 24"><path d="M5 3h14v18H5zM9 3v18M15 3v18M5 12h14"/></symbol>
  <symbol id="layers" viewBox="0 0 24 24"><path d="m12 3 9 5-9 5-9-5 9-5ZM3 12l9 5 9-5M3 16l9 5 9-5"/></symbol>
  <symbol id="gear" viewBox="0 0 24 24"><circle cx="12" cy="12" r="3"/><path d="M19.4 15a1.7 1.7 0 0 0 .34 1.88l.06.06-2.83 2.83-.06-.06A1.7 1.7 0 0 0 15 19.4a1.7 1.7 0 0 0-1 .6 1.7 1.7 0 0 0-.4 1.1V21h-4v-.1A1.7 1.7 0 0 0 8.6 19.4a1.7 1.7 0 0 0-1.88.34l-.06.06-2.83-2.83.06-.06A1.7 1.7 0 0 0 4.6 15a1.7 1.7 0 0 0-.6-1 1.7 1.7 0 0 0-1.1-.4H3v-4h.1A1.7 1.7 0 0 0 4.6 8.6a1.7 1.7 0 0 0-.34-1.88l-.06-.06 2.83-2.83.06.06A1.7 1.7 0 0 0 9 4.6a1.7 1.7 0 0 0 1-.6 1.7 1.7 0 0 0 .4-1.1V3h4v.1A1.7 1.7 0 0 0 15.4 4.6a1.7 1.7 0 0 0 1.88-.34l.06-.06 2.83 2.83-.06.06A1.7 1.7 0 0 0 19.4 9c.17.37.38.7.6 1 .28.34.68.55 1.1.6h.1v4h-.1c-.42.05-.82.26-1.1.6-.22.3-.43.63-.6 1Z"/></symbol>
  <symbol id="paint" viewBox="0 0 24 24"><path d="M4 4h13v5H4zM17 6h3v6h-8v3M12 14v7H8v-7z"/></symbol>
  <symbol id="leaf" viewBox="0 0 24 24"><path d="M20 4C10 4 4 9 4 15c0 3 2 5 5 5 6 0 11-6 11-16ZM4 21c3-6 7-9 13-13"/></symbol>
  <symbol id="smart" viewBox="0 0 24 24"><path d="M4 21V8l8-5 8 5v13M8 21v-5h8v5M8 10h2M14 10h2M8 13h2M14 13h2M2 21h20"/></symbol>
  <symbol id="city" viewBox="0 0 24 24"><path d="M3 21V9h6v12M9 21V3h7v18M16 21v-8h5v8M6 12v1M6 16v1M12 7v1M12 11v1M12 15v1M19 16v1M2 21h20"/></symbol>
  <symbol id="crane" viewBox="0 0 24 24"><path d="M6 22V3h10M3 7h18M8 3l8 4M16 7v5M14 12h4M5 22h4M3 11h6"/></symbol>
  <symbol id="architecture" viewBox="0 0 24 24"><path d="M3 21h18M5 21V9l7-6 7 6v12M9 21v-8h6v8M8 9h8"/></symbol>
  <symbol id="robot" viewBox="0 0 24 24"><path d="M7 18h10v4H7zM9 18v-4l3-3 3 2 3-4M15 13l2 2 4-4-2-2-4 4ZM12 11 9 8 6 11l3 3M9 8V4H5M5 2v4"/></symbol>
  <symbol id="bulb" viewBox="0 0 24 24"><path d="M9 18h6M10 22h4M8.5 16c-2-1.2-3.5-3.7-3.5-6.5a7 7 0 1 1 14 0c0 2.8-1.5 5.3-3.5 6.5H8.5ZM12 2V0M4 4 2.5 2.5M20 4l1.5-1.5"/></symbol>
  <symbol id="mic" viewBox="0 0 24 24"><rect x="8" y="2" width="8" height="13" rx="4"/><path d="M5 11a7 7 0 0 0 14 0M12 18v4M8 22h8"/></symbol>
  <symbol id="keynote" viewBox="0 0 24 24"><circle cx="12" cy="6" r="3"/><path d="M5 21v-3a7 7 0 0 1 14 0v3M12 12v5M9 15h6"/></symbol>
  <symbol id="africa" viewBox="0 0 24 24"><path d="m8 3-4 4 1 5 3 2 1 5 3 2 3-4 3-2 2-6-4-5-8-1Z"/></symbol>
  <symbol id="calendar" viewBox="0 0 24 24"><rect x="3" y="5" width="18" height="16" rx="2"/><path d="M7 3v4M17 3v4M3 10h18M7 14h2M11 14h2M15 14h2M7 17h2M11 17h2"/></symbol>
  <symbol id="pin" viewBox="0 0 24 24"><path d="M20 10c0 6-8 12-8 12S4 16 4 10a8 8 0 1 1 16 0Z"/><circle cx="12" cy="10" r="2.5"/></symbol>
</svg>
